# xmcd
#
# Track frame offsets:
#	150
#	17957
#	32195
#	48355
#	65150
#	83957
#	97580
#	113597
#	129685
#	147642
#	165012
#	182067
#	196222
#	212367
#
# Disc length: 3035 seconds
#
# Revision: 0
# Processed by: cddbd v1.5.2PL0 Copyright (c) Steve Scherf et al.
# Submitted via: EasyCDDAExtractor 16.0.9.1
#
DISCID=ba0bd90e
DTITLE=Various Artist - Maximum Dance
DYEAR=1997
DGENRE=Dance
TTITLE0=Dune - Who Wants To Live Forever
TTITLE1=The Soundlovers - Run Away
TTITLE2=Striking Man - My House (It's Not Even Music)
TTITLE3=Intermission - Real Love
TTITLE4=Mark' Oh - The Right Way
TTITLE5=Maddog - I'm Alive
TTITLE6=Porn Kings - Up To No Good
TTITLE7=Jimi Tenor - Take Me Baby
TTITLE8=Down Low - Potion
TTITLE9=Ghetto People feat. L-Viz - In The Ghetto
TTITLE10=Robert Miles - One and One
TTITLE11=Unique II - Break My Stride
TTITLE12=DJ Quicksilver - I Have A Dream
TTITLE13=Huff and Puff - Help Me Make It
EXTD=
EXTT0=
EXTT1=
EXTT2=
EXTT3=
EXTT4=
EXTT5=
EXTT6=
EXTT7=
EXTT8=
EXTT9=
EXTT10=
EXTT11=
EXTT12=
EXTT13=
PLAYORDER=
